<svg width="78" height="19" viewBox="0 0 78 19" fill="none" xmlns="http://www.w3.org/2000/svg">
<path d="M29.3998 8.10156C29.1998 9.60156 27.9998 9.60156 26.8998 9.60156H26.2998L26.7998 6.70156C26.7998 6.50156 26.9998 6.40156 27.1998 6.40156H27.4998C28.2998 6.40156 28.9998 6.40156 29.3998 6.80156C29.3998 7.20156 29.3998 7.60156 29.3998 8.10156ZM28.8998 4.10156H24.5998C24.2998 4.10156 24.0998 4.30156 23.9998 4.60156L22.2998 15.6016C22.2998 15.8016 22.3998 16.0016 22.6998 16.0016H24.6998C24.9998 16.0016 25.1998 15.8016 25.2998 15.5016L25.7998 12.5016C25.7998 12.2016 26.0998 12.0016 26.3998 12.0016H27.7998C30.5998 12.0016 32.1998 10.6016 32.6998 7.90156C32.8998 6.70156 32.6998 5.80156 32.1998 5.10156C31.3998 4.50156 30.2998 4.10156 28.8998 4.10156Z" fill="#263577"/>
<path d="M38.8003 12.0984C38.6003 13.2984 37.7003 14.0984 36.5003 14.0984C35.9003 14.0984 35.4003 13.8984 35.1003 13.4984C34.8003 13.0984 34.7003 12.5984 34.8003 12.0984C35.0003 10.8984 35.9003 10.0984 37.1003 10.0984C37.7003 10.0984 38.2003 10.2984 38.5003 10.6984C38.7003 10.9984 38.9003 11.4984 38.8003 12.0984ZM41.6003 8.09844H39.6003C39.4003 8.09844 39.3003 8.19844 39.2003 8.39844L39.1003 8.99844L39.0003 8.79844C38.6003 8.19844 37.6003 7.89844 36.6003 7.89844C34.3003 7.89844 32.4003 9.59844 32.0003 11.9984C31.8003 13.1984 32.1003 14.2984 32.8003 15.0984C33.4003 15.7984 34.3003 16.0984 35.4003 16.0984C37.2003 16.0984 38.2003 14.8984 38.2003 14.8984L38.1003 15.4984C38.1003 15.6984 38.2003 15.8984 38.5003 15.8984H40.3003C40.6003 15.8984 40.8003 15.6984 40.9003 15.3984L42.0003 8.39844C42.0003 8.29844 41.9003 8.09844 41.6003 8.09844Z" fill="#263577"/>
<path d="M52.5002 8.10156H50.4002C50.2002 8.10156 50.0002 8.20156 49.9002 8.40156L47.1002 12.6016L45.9002 8.60156C45.8002 8.30156 45.6002 8.20156 45.3002 8.20156H43.3002C43.1002 8.20156 42.9002 8.40156 43.0002 8.70156L45.3002 15.3016L43.2002 18.3016C43.0002 18.5016 43.2002 18.9016 43.5002 18.9016H45.6002C45.8002 18.9016 46.0002 18.8016 46.1002 18.6016L52.9002 8.70156C53.0002 8.40156 52.8002 8.10156 52.5002 8.10156Z" fill="#263577"/>
<path d="M59.8002 8.10156C59.6002 9.60156 58.4002 9.60156 57.3002 9.60156H56.7002L57.2002 6.70156C57.2002 6.50156 57.4002 6.40156 57.6002 6.40156H57.9002C58.7002 6.40156 59.4002 6.40156 59.8002 6.80156C59.9002 7.20156 59.9002 7.60156 59.8002 8.10156ZM59.3002 4.10156H55.0002C54.7002 4.10156 54.5002 4.30156 54.4002 4.60156L52.7002 15.6016C52.7002 15.8016 52.8002 16.0016 53.1002 16.0016H55.3002C55.5002 16.0016 55.7002 15.9016 55.7002 15.6016L56.2002 12.5016C56.2002 12.2016 56.5002 12.0016 56.8002 12.0016H58.2002C61.0002 12.0016 62.6002 10.6016 63.1002 7.90156C63.3002 6.70156 63.1002 5.80156 62.6002 5.10156C61.9002 4.50156 60.8002 4.10156 59.3002 4.10156Z" fill="#2199D6"/>
<path d="M69.3003 12.0984C69.1003 13.2984 68.2003 14.0984 67.0003 14.0984C66.4003 14.0984 65.9003 13.8984 65.6003 13.4984C65.3003 13.0984 65.2003 12.5984 65.3003 12.0984C65.5003 10.8984 66.4003 10.0984 67.6003 10.0984C68.2003 10.0984 68.7003 10.2984 69.0003 10.6984C69.2003 10.9984 69.4003 11.4984 69.3003 12.0984ZM72.1003 8.09844H70.1003C69.9003 8.09844 69.8003 8.19844 69.7003 8.39844L69.6003 8.99844L69.5003 8.79844C69.1003 8.19844 68.1003 7.89844 67.1003 7.89844C64.8003 7.89844 62.9003 9.59844 62.5003 11.9984C62.3003 13.1984 62.6003 14.2984 63.3003 15.0984C63.9003 15.7984 64.8003 16.0984 65.9003 16.0984C67.7003 16.0984 68.7003 14.8984 68.7003 14.8984L68.6003 15.4984C68.6003 15.6984 68.7003 15.8984 69.0003 15.8984H70.8003C71.1003 15.8984 71.3003 15.6984 71.4003 15.3984L72.5003 8.39844C72.5003 8.29844 72.3003 8.09844 72.1003 8.09844Z" fill="#2199D6"/>
<path d="M74.5002 4.40156L72.7002 15.6016C72.7002 15.8016 72.8002 16.0016 73.1002 16.0016H74.9002C75.2002 16.0016 75.4002 15.8016 75.5002 15.5016L77.2002 4.50156C77.2002 4.30156 77.1002 4.10156 76.8002 4.10156H74.8002C74.7002 4.10156 74.6002 4.30156 74.5002 4.40156Z" fill="#2199D6"/>
<path d="M4.50011 18.1016L4.80009 16.0016H4.1001H0.600098L3.00011 0.701561C3.00011 0.701561 3.0001 0.601562 3.1001 0.601562H3.2001H9.1001C11.0001 0.601562 12.4001 1.00156 13.1001 1.80156C13.4001 2.20156 13.6001 2.60156 13.7001 3.00156C13.8001 3.50156 13.8001 4.00156 13.7001 4.70156V5.10156L14.0001 5.30156C14.3001 5.40156 14.5001 5.60156 14.7001 5.80156C15.0001 6.10156 15.2001 6.50156 15.2001 7.00156C15.3001 7.50156 15.3001 8.10156 15.1001 8.80156C14.9001 9.60156 14.7001 10.2016 14.4001 10.8016C14.1001 11.3016 13.7001 11.7016 13.3001 12.1016C12.9001 12.4016 12.3001 12.6016 11.8001 12.8016C11.2001 12.9016 10.6001 13.0016 9.9001 13.0016H9.4001C9.1001 13.0016 8.80011 13.1016 8.50011 13.3016C8.30011 13.5016 8.10011 13.8016 8.00011 14.1016V14.3016L7.4001 18.0016V18.1016V18.2016C7.4001 18.2016 7.40009 18.2016 7.30009 18.2016H4.50011V18.1016Z" fill="#263577"/>
<path d="M14.3999 4.69922C14.3999 4.79922 14.3999 4.89922 14.2999 4.99922C13.4999 8.99922 10.8999 10.2992 7.49991 10.2992H5.7999C5.3999 10.2992 4.99991 10.5992 4.99991 10.9992L4.0999 16.5992L3.8999 18.1992C3.8999 18.4992 4.0999 18.6992 4.2999 18.6992H7.3999C7.7999 18.6992 8.0999 18.3992 8.0999 18.0992V17.8992L8.69991 14.2992V14.0992C8.79991 13.6992 9.0999 13.4992 9.3999 13.4992H9.8999C12.8999 13.4992 15.1999 12.2992 15.7999 8.79922C16.0999 7.29922 15.8999 6.09922 15.1999 5.29922C14.9999 5.09922 14.6999 4.89922 14.3999 4.69922Z" fill="#2199D6"/>
<path d="M13.6 4.40156C13.5 4.40156 13.4 4.30156 13.2 4.30156C13.1 4.30156 12.9 4.20156 12.8 4.20156C12.3 4.10156 11.8 4.10156 11.3 4.10156H6.7C6.6 4.10156 6.49999 4.10156 6.39999 4.20156C6.19999 4.30156 6 4.50156 6 4.70156L5 10.9016V11.1016C5.1 10.7016 5.39999 10.4016 5.79999 10.4016H7.5C10.9 10.4016 13.5 9.00156 14.3 5.10156C14.3 5.00156 14.3 4.90156 14.4 4.80156C14.2 4.70156 14 4.60156 13.8 4.50156C13.7 4.40156 13.6 4.40156 13.6 4.40156Z" fill="#252C5E"/>
<path d="M6 4.7C6 4.5 6.19999 4.3 6.39999 4.2C6.49999 4.2 6.6 4.1 6.7 4.1H11.3C11.8 4.1 12.4 4.1 12.8 4.2C12.9 4.2 13.1 4.2 13.2 4.3C13.3 4.3 13.4 4.4 13.6 4.4C13.7 4.4 13.7 4.4 13.8 4.5C14 4.6 14.2 4.7 14.4 4.8C14.6 3.3 14.4 2.3 13.6 1.4C12.7 0.399998 11.1 0 9.09999 0H3.2C2.8 0 2.39999 0.299997 2.39999 0.699997L0 16.1C0 16.4 0.2 16.7 0.5 16.7H4.09999L5 10.9L6 4.7Z" fill="#263577"/>
</svg>
