<svg width="70" height="25" viewBox="0 0 70 25" fill="none" xmlns="http://www.w3.org/2000/svg">
<g clip-path="url(#clip0_155_12)">
<path d="M58.2448 6.58594H51.7549V18.2486H58.2448V6.58594Z" fill="#FF5F00"/>
<path d="M52.1678 12.4171C52.1667 11.2939 52.4213 10.1852 52.9121 9.17491C53.4029 8.16462 54.1171 7.27924 55.0007 6.58578C53.9065 5.72573 52.5924 5.19088 51.2086 5.04236C49.8249 4.89384 48.4272 5.13763 47.1754 5.74589C45.9237 6.35414 44.8683 7.30232 44.1299 8.48203C43.3916 9.66173 43 11.0254 43 12.4171C43 13.8088 43.3916 15.1725 44.1299 16.3522C44.8683 17.5319 45.9237 18.4801 47.1754 19.0883C48.4272 19.6966 49.8249 19.9404 51.2086 19.7919C52.5924 19.6433 53.9065 19.1085 55.0007 18.2484C54.1171 17.555 53.4029 16.6696 52.9121 15.6593C52.4213 14.649 52.1667 13.5403 52.1678 12.4171V12.4171Z" fill="#EB001B"/>
<path d="M67.0003 12.4171C67.0004 13.8088 66.6088 15.1725 65.8705 16.3522C65.1322 17.5319 64.0768 18.48 62.8251 19.0883C61.5733 19.6966 60.1757 19.9404 58.792 19.7919C57.4082 19.6433 56.0941 19.1085 55 18.2484C55.8828 17.5543 56.5965 16.6687 57.0872 15.6586C57.5779 14.6485 57.8329 13.5401 57.8329 12.4171C57.8329 11.2941 57.5779 10.1857 57.0872 9.17559C56.5965 8.16546 55.8828 7.27994 55 6.58578C56.0941 5.72573 57.4082 5.19088 58.792 5.04236C60.1757 4.89384 61.5733 5.13764 62.8251 5.74591C64.0768 6.35417 65.1322 7.30234 65.8705 8.48205C66.6088 9.66176 67.0004 11.0254 67.0003 12.4171V12.4171Z" fill="#F79E1B"/>
<path d="M66.2935 17.0145V16.7757H66.3897V16.727H66.1445V16.7757H66.2409V17.0145H66.2935ZM66.7695 17.0145V16.7266H66.6943L66.6079 16.9246L66.5214 16.7266H66.4462V17.0145H66.4993V16.7973L66.5803 16.9845H66.6354L66.7165 16.7968V17.0145H66.7695Z" fill="#F79E1B"/>
</g>
<path d="M18.3343 7.19434L16.0584 17.8337H13.3063L15.583 7.19434H18.3343ZM29.9138 14.0638L31.3624 10.0691L32.1961 14.0638H29.9138ZM32.9847 17.8337H35.5302L33.3082 7.19434H30.9588C30.4304 7.19434 29.985 7.50186 29.7875 7.97491L25.6575 17.8337H28.5474L29.1214 16.2444H32.6524L32.9847 17.8337ZM25.8011 14.3599C25.8129 11.552 21.9183 11.3972 21.9451 10.1429C21.9534 9.76115 22.3169 9.35532 23.1124 9.25159C23.5068 9.19993 24.5934 9.1605 25.8258 9.72775L26.3092 7.47168C25.647 7.23138 24.795 7 23.7347 7C21.0143 7 19.0999 8.44622 19.0837 10.5169C19.0662 12.0486 20.4502 12.9033 21.4929 13.4122C22.5656 13.9335 22.9255 14.2683 22.9215 14.7346C22.9138 15.4484 22.0659 15.7634 21.2735 15.7757C19.8902 15.797 19.0874 15.4014 18.4474 15.1039L17.9487 17.4347C18.5917 17.7298 19.7787 17.9871 21.0094 18C23.9009 18 25.7922 16.5718 25.8011 14.3599V14.3599ZM14.4018 7.19434L9.94256 17.8337H7.03329L4.83891 9.34299C4.70563 8.81995 4.58991 8.62846 4.18475 8.40819C3.52329 8.04922 2.43078 7.71261 1.46973 7.50356L1.53503 7.19434H6.21821C6.81516 7.19434 7.35173 7.59173 7.48725 8.2792L8.64619 14.4357L11.5105 7.19434H14.4018Z" fill="#1434CB"/>
<defs>
<clipPath id="clip0_155_12">
<rect width="25.0003" height="17" fill="white" transform="translate(42 4)"/>
</clipPath>
</defs>
</svg>
